<svg width="80" height="80" viewBox="0 0 80 80" fill="none" xmlns="http://www.w3.org/2000/svg">
<path d="M46.6739 45.654C45.5623 46.8731 44.1139 47.7362 42.5114 48.1346C40.909 48.5329 39.2243 48.4486 37.6698 47.8923C36.1153 47.336 34.7606 46.3326 33.7767 45.0087C32.7928 43.6848 32.2238 42.0997 32.1413 40.4533C32.0588 38.8069 32.4667 37.1731 33.3133 35.7578C34.16 34.3425 35.4076 33.2092 36.8988 32.5009C38.39 31.7926 40.0579 31.541 41.6921 31.7778C43.3264 32.0145 44.8538 32.7292 46.0817 33.8315C46.9011 34.5671 47.5668 35.4572 48.0403 36.4506C48.5139 37.444 48.786 38.5211 48.8411 39.6198C48.8961 40.7186 48.733 41.8173 48.361 42.8529C47.9891 43.8885 47.4157 44.8405 46.6739 45.654Z" fill="url(#paint0_radial_11388_62361)"/>
<path d="M60.9639 56.8289C57.833 57.3664 55.3351 57.4959 51.6485 56.9148C46.2776 63.0422 44.2799 71.297 46.7146 79.1888C57.3686 77.3769 67.0761 71.2613 73.2153 62.354C78.6609 54.4531 80.5593 45.1001 79.8608 35.416C79.2878 46.5186 71.8113 54.9438 60.9639 56.8289Z" fill="url(#paint1_linear_11388_62361)"/>
<path d="M72.0216 16.0475C66.5887 22.2454 58.4392 24.957 49.1258 23.4075C48.9318 24.957 48.5305 27.9269 53.5397 33.3201C59.8866 40.1529 64.771 48.8624 63.8723 56.1402C63.8723 56.1402 79.0068 52.6539 79.8606 35.4159C79.8606 35.4159 79.2045 25.4082 72.0216 16.0475Z" fill="url(#paint2_linear_11388_62361)"/>
<path d="M14.7881 49.7295C15.8872 46.7543 17.0238 44.5302 19.3713 41.6337C16.7408 33.927 10.5779 28.0727 2.51382 26.2314C-1.24127 36.3475 -0.789282 47.7972 3.86896 57.5581C8.00087 66.2161 15.1661 72.5337 23.917 76.7719C14.5712 70.7253 10.9999 60.0494 14.7881 49.7295Z" fill="url(#paint3_linear_11388_62361)"/>
<path d="M44.6402 79.6793C41.9794 71.8838 43.7017 63.483 49.7027 56.2065C48.4554 55.2641 46.0794 53.4321 38.8958 55.0659C29.7944 57.1362 19.796 57.0039 13.9312 52.5881C13.9312 52.5881 9.38863 67.4146 23.917 76.7717C23.917 76.7717 32.9276 81.2084 44.6402 79.6793Z" fill="url(#paint4_linear_11388_62361)"/>
<path d="M44.353 13.4684C46.3847 15.9061 47.746 18.0008 49.0852 21.4783C57.0867 23.0577 65.2472 20.6571 70.8766 14.6066C63.9776 6.30236 53.8182 0.968259 43.0207 0.114761C33.4433 -0.642301 24.3796 2.393 16.3271 7.83888C26.246 2.78292 37.2938 5.03356 44.353 13.4684Z" fill="url(#paint5_linear_11388_62361)"/>
<path d="M3.44238 24.2998C11.536 25.8975 17.9633 31.5867 21.2757 40.4127C22.717 39.8056 25.4943 38.6676 27.6687 31.6407C30.4232 22.7376 35.5372 14.1604 42.3007 11.2984C42.3007 11.2984 31.7088 -0.0418668 16.3266 7.83902C16.3266 7.83902 7.97208 13.41 3.44238 24.2998Z" fill="url(#paint6_linear_11388_62361)"/>
<defs>
<radialGradient id="paint0_radial_11388_62361" cx="0" cy="0" r="1" gradientUnits="userSpaceOnUse" gradientTransform="translate(37.6778 35.61) rotate(59.5171) scale(13.0335 13.0448)">
<stop stop-color="#0096D4"/>
<stop offset="1" stop-color="#00206F"/>
</radialGradient>
<linearGradient id="paint1_linear_11388_62361" x1="80.1713" y1="35.4158" x2="45.7097" y2="79.0834" gradientUnits="userSpaceOnUse">
<stop stop-color="#0096D4"/>
<stop offset="1" stop-color="#00206F"/>
</linearGradient>
<linearGradient id="paint2_linear_11388_62361" x1="64.2604" y1="56.1686" x2="72.1883" y2="15.8768" gradientUnits="userSpaceOnUse">
<stop stop-color="#00206F"/>
<stop offset="1" stop-color="#0096D4"/>
</linearGradient>
<linearGradient id="paint3_linear_11388_62361" x1="23.9016" y1="76.6993" x2="-0.0882218" y2="26.3078" gradientUnits="userSpaceOnUse">
<stop stop-color="#0096D4"/>
<stop offset="1" stop-color="#00206F"/>
</linearGradient>
<linearGradient id="paint4_linear_11388_62361" x1="13.4236" y1="52.6821" x2="49.466" y2="80.2476" gradientUnits="userSpaceOnUse">
<stop stop-color="#00206F"/>
<stop offset="1" stop-color="#0096D4"/>
</linearGradient>
<linearGradient id="paint5_linear_11388_62361" x1="16.1718" y1="7.57063" x2="70.8448" y2="22.1287" gradientUnits="userSpaceOnUse">
<stop stop-color="#0096D4"/>
<stop offset="1" stop-color="#00206F"/>
</linearGradient>
<linearGradient id="paint6_linear_11388_62361" x1="42.1406" y1="5.03574" x2="22.7908" y2="40.3157" gradientUnits="userSpaceOnUse">
<stop stop-color="#00206F"/>
<stop offset="1" stop-color="#0096D4"/>
</linearGradient>
</defs>
</svg>
