<svg width="36" height="36" viewBox="0 0 36 36" fill="none" xmlns="http://www.w3.org/2000/svg">
<rect width="36" height="36" rx="8" fill="#4480F3"/>
<path d="M24.5 17.3H19.1V11.9C19.1 11.6613 19.0052 11.4324 18.8364 11.2636C18.6676 11.0948 18.4387 11 18.2 11C17.9613 11 17.7324 11.0948 17.5636 11.2636C17.3948 11.4324 17.3 11.6613 17.3 11.9V17.3H11.9C11.6613 17.3 11.4324 17.3948 11.2636 17.5636C11.0948 17.7324 11 17.9613 11 18.2C11 18.4387 11.0948 18.6676 11.2636 18.8364C11.4324 19.0052 11.6613 19.1 11.9 19.1H17.3V24.5C17.3 24.7387 17.3948 24.9676 17.5636 25.1364C17.7324 25.3052 17.9613 25.4 18.2 25.4C18.4387 25.4 18.6676 25.3052 18.8364 25.1364C19.0052 24.9676 19.1 24.7387 19.1 24.5V19.1H24.5C24.7387 19.1 24.9676 19.0052 25.1364 18.8364C25.3052 18.6676 25.4 18.4387 25.4 18.2C25.4 17.9613 25.3052 17.7324 25.1364 17.5636C24.9676 17.3948 24.7387 17.3 24.5 17.3Z" fill="white"/>
</svg>
