<svg width="16" height="16" viewBox="0 0 16 16" fill="none" xmlns="http://www.w3.org/2000/svg">
<path d="M13.9586 5.16332C14.4229 4.86426 15.0418 4.99823 15.3408 5.46254C15.4489 5.63031 15.5004 5.81826 15.5002 6.004C15.4999 6.33232 15.3382 6.65376 15.0416 6.84476L9.62456 10.3338C9.62194 10.3354 9.61932 10.3371 9.6167 10.3388L9.08308 10.6825C8.42358 11.1073 7.57664 11.1073 6.91714 10.6825L6.38349 10.3388C6.38087 10.3371 6.37826 10.3354 6.37565 10.3338L0.958635 6.84475C0.784514 6.73261 0.656856 6.57548 0.581063 6.39841C0.474185 6.14871 0.470449 5.85934 0.585035 5.60041C0.605881 5.5533 0.630643 5.50721 0.659412 5.46254C0.958466 4.99823 1.5773 4.86426 2.04161 5.16332L7.45862 8.65234L7.46318 8.65525C7.79075 8.86375 8.20948 8.86375 8.53705 8.65525L13.9586 5.16332Z" fill="#80858E"/>
</svg>
