<svg width="178" height="50" viewBox="0 0 178 50" fill="none" xmlns="http://www.w3.org/2000/svg">
<path d="M67.4929 33.6862H68.746C69.2192 33.6862 69.5769 33.5919 69.8191 33.4033C70.067 33.2148 70.1909 32.9264 70.1909 32.5382C70.1909 32.1389 70.067 31.8506 69.8191 31.6731C69.5769 31.4957 69.2192 31.4069 68.746 31.4069H67.4929V33.6862ZM67.4929 36.5311H66.7324V30.7082H68.8136C69.1516 30.7082 69.453 30.7442 69.7177 30.8163C69.9881 30.8829 70.2191 30.991 70.4107 31.1407C70.6022 31.2905 70.7487 31.479 70.8501 31.7064C70.9515 31.9338 71.0022 32.2055 71.0022 32.5216C71.0022 33.1261 70.8022 33.5891 70.4022 33.9108C70.0079 34.2269 69.4558 34.3849 68.746 34.3849H67.4929V36.5311Z" fill="#525760"/>
<path d="M75.2835 35.9155C75.8413 35.9155 76.2779 35.7242 76.5933 35.3415C76.9144 34.9533 77.075 34.3794 77.075 33.6196C77.075 33.2203 77.0299 32.8765 76.9398 32.5881C76.8553 32.2998 76.7313 32.0613 76.568 31.8728C76.4046 31.6842 76.2046 31.5456 75.968 31.4568C75.737 31.3681 75.4751 31.3237 75.1821 31.3237C74.923 31.3237 74.6808 31.3709 74.4554 31.4652C74.2301 31.5594 74.0357 31.7008 73.8724 31.8894C73.709 32.0779 73.5794 32.3164 73.4837 32.6048C73.3879 32.8931 73.34 33.2314 73.34 33.6196C73.34 34.0023 73.3851 34.3378 73.4752 34.6261C73.571 34.9145 73.7034 35.1557 73.8724 35.3498C74.0414 35.5384 74.2442 35.6798 74.4808 35.7741C74.723 35.8684 74.9906 35.9155 75.2835 35.9155ZM75.2075 36.6142C74.7963 36.6142 74.4244 36.5449 74.0921 36.4063C73.7653 36.2676 73.4837 36.0708 73.2471 35.8157C73.0161 35.555 72.8386 35.2389 72.7147 34.8674C72.5908 34.4958 72.5288 34.0799 72.5288 33.6196C72.5288 33.1538 72.5936 32.7379 72.7231 32.3719C72.8527 32.0003 73.033 31.687 73.264 31.4319C73.5006 31.1712 73.7822 30.9716 74.109 30.833C74.4357 30.6943 74.7934 30.625 75.1821 30.625C75.6216 30.625 76.0074 30.6999 76.3398 30.8496C76.6778 30.9938 76.9595 31.199 77.1848 31.4652C77.4158 31.7258 77.5904 32.0419 77.7087 32.4135C77.8271 32.7795 77.8862 33.1815 77.8862 33.6196C77.8862 34.1132 77.8186 34.5485 77.6834 34.9256C77.5482 35.2972 77.3623 35.6077 77.1257 35.8573C76.8891 36.1068 76.6074 36.2954 76.2807 36.4229C75.9539 36.5505 75.5962 36.6142 75.2075 36.6142Z" fill="#525760"/>
<path d="M83.745 36.373C83.5816 36.4506 83.3901 36.5089 83.1704 36.5477C82.9507 36.5921 82.7113 36.6142 82.4521 36.6142C81.9902 36.6142 81.5761 36.5477 81.2099 36.4146C80.8494 36.276 80.5424 36.0791 80.2889 35.824C80.0354 35.5689 79.841 35.2639 79.7058 34.909C79.5706 34.5485 79.503 34.1437 79.503 33.6945C79.503 33.2009 79.5706 32.7628 79.7058 32.3802C79.841 31.9975 80.0354 31.6759 80.2889 31.4152C80.5424 31.1546 80.8466 30.9577 81.2015 30.8246C81.562 30.6915 81.962 30.625 82.4014 30.625C82.7394 30.625 83.0127 30.65 83.2211 30.6999C83.4352 30.7442 83.6126 30.7941 83.7535 30.8496L83.6098 31.5067C83.4239 31.4402 83.2352 31.3931 83.0436 31.3653C82.8521 31.3376 82.6634 31.3237 82.4775 31.3237C81.7733 31.3237 81.2353 31.5178 80.8635 31.906C80.4973 32.2942 80.3142 32.8654 80.3142 33.6196C80.3142 33.9801 80.3649 34.3045 80.4663 34.5929C80.5734 34.8757 80.7227 35.1169 80.9142 35.3166C81.1057 35.5107 81.3395 35.6604 81.6156 35.7658C81.8916 35.8656 82.2043 35.9155 82.5535 35.9155C82.7394 35.9155 82.9253 35.8989 83.1112 35.8656C83.3028 35.8323 83.4718 35.7796 83.6182 35.7075L83.745 36.373Z" fill="#525760"/>
<path d="M89.1431 34.9755H86.6165L86.0419 36.5311H85.2729L87.5291 30.7082H88.2896L90.5036 36.5311H89.7092L89.1431 34.9755ZM86.8615 34.2934H88.898L87.9093 31.5567H87.8755L86.8615 34.2934Z" fill="#525760"/>
<path d="M94.0286 36.5311H93.268V31.4069H91.3609V30.7082H95.9564V31.4069H94.0286V36.5311Z" fill="#525760"/>
<path d="M99.888 35.9155C100.446 35.9155 100.882 35.7242 101.198 35.3415C101.519 34.9533 101.679 34.3794 101.679 33.6196C101.679 33.2203 101.634 32.8765 101.544 32.5881C101.46 32.2998 101.336 32.0613 101.172 31.8728C101.009 31.6842 100.809 31.5456 100.572 31.4568C100.342 31.3681 100.08 31.3237 99.7866 31.3237C99.5275 31.3237 99.2852 31.3709 99.0599 31.4652C98.8346 31.5594 98.6402 31.7008 98.4768 31.8894C98.3135 32.0779 98.1839 32.3164 98.0881 32.6048C97.9924 32.8931 97.9445 33.2314 97.9445 33.6196C97.9445 34.0023 97.9896 34.3378 98.0797 34.6261C98.1755 34.9145 98.3078 35.1557 98.4768 35.3498C98.6458 35.5384 98.8487 35.6798 99.0853 35.7741C99.3275 35.8684 99.5951 35.9155 99.888 35.9155ZM99.812 36.6142C99.4007 36.6142 99.0289 36.5449 98.6965 36.4063C98.3698 36.2676 98.0881 36.0708 97.8515 35.8157C97.6206 35.555 97.4431 35.2389 97.3192 34.8674C97.1952 34.4958 97.1333 34.0799 97.1333 33.6196C97.1333 33.1538 97.1981 32.7379 97.3276 32.3719C97.4572 32.0003 97.6375 31.687 97.8684 31.4319C98.105 31.1712 98.3867 30.9716 98.7135 30.833C99.0402 30.6943 99.3979 30.625 99.7866 30.625C100.226 30.625 100.612 30.6999 100.944 30.8496C101.282 30.9938 101.564 31.199 101.789 31.4652C102.02 31.7258 102.195 32.0419 102.313 32.4135C102.432 32.7795 102.491 33.1815 102.491 33.6196C102.491 34.1132 102.423 34.5485 102.288 34.9256C102.153 35.2972 101.967 35.6077 101.73 35.8573C101.494 36.1068 101.212 36.2954 100.885 36.4229C100.558 36.5505 100.201 36.6142 99.812 36.6142Z" fill="#525760"/>
<path d="M110.141 36.5311H109.38L109.017 31.9809L107.521 36.5311H106.727L105.24 31.9975L104.868 36.5311H104.107L104.615 30.7082H105.544L107.141 35.7158L108.704 30.7082H109.634L110.141 36.5311Z" fill="#525760"/>
<rect x="57.3496" y="3.75" width="0.398243" height="42.0938" fill="#525760"/>
<path d="M29.095 28.5354C28.4021 29.2973 27.4992 29.8368 26.5003 30.0857C25.5014 30.3347 24.4511 30.282 23.4821 29.9343C22.5131 29.5866 21.6686 28.9595 21.0553 28.132C20.4419 27.3046 20.0872 26.3139 20.0358 25.2849C19.9844 24.2559 20.2386 23.2348 20.7664 22.3502C21.2942 21.4657 22.072 20.7574 23.0015 20.3147C23.9311 19.872 24.9708 19.7147 25.9895 19.8627C27.0083 20.0107 27.9604 20.4573 28.7259 21.1463C29.2367 21.606 29.6516 22.1624 29.9469 22.7832C30.2421 23.4041 30.4117 24.0773 30.446 24.764C30.4803 25.4507 30.3786 26.1374 30.1468 26.7847C29.9149 27.4319 29.5575 28.0269 29.095 28.5354Z" fill="#525760"/>
<path d="M38.0028 35.5198C36.0511 35.8557 34.4939 35.9366 32.1958 35.5735C28.8477 39.4031 27.6024 44.5624 29.1201 49.4947C35.7616 48.3623 41.813 44.5401 45.64 38.973C49.0346 34.0349 50.2181 28.1893 49.7826 22.1367C49.4254 29.0758 44.7648 34.3416 38.0028 35.5198Z" fill="#525760"/>
<path d="M44.8965 10.0312C41.5098 13.9049 36.4296 15.5997 30.6239 14.6313C30.503 15.5997 30.2528 17.4559 33.3754 20.8267C37.3319 25.0971 40.3767 30.5406 39.8164 35.0892C39.8164 35.0892 49.2509 32.9103 49.7831 22.1366C49.7831 22.1366 49.3742 15.8817 44.8965 10.0312Z" fill="#525760"/>
<path d="M9.21852 31.0808C9.90368 29.2213 10.6122 27.8312 12.0755 26.0209C10.4358 21.2042 6.59396 17.5453 1.56705 16.3945C-0.773778 22.7171 -0.492017 29.8731 2.41181 35.9737C4.98753 41.3849 9.45414 45.3335 14.9092 47.9823C9.08328 44.2032 6.85703 37.5308 9.21852 31.0808Z" fill="#525760"/>
<path d="M27.828 49.7992C26.1693 44.927 27.2429 39.6765 30.9838 35.1287C30.2062 34.5397 28.7251 33.3947 24.247 34.4158C18.5735 35.7098 12.3407 35.6271 8.6848 32.8672C8.6848 32.8672 5.85307 42.1338 14.9097 47.982C14.9097 47.982 20.5266 50.7549 27.828 49.7992Z" fill="#525760"/>
<path d="M27.6483 8.41772C28.9148 9.94134 29.7634 11.2505 30.5983 13.4239C35.5861 14.411 40.6732 12.9107 44.1824 9.12912C39.8818 3.93897 33.5486 0.605162 26.8178 0.0717257C20.8475 -0.401438 15.1974 1.49563 10.1777 4.8993C16.3609 1.73933 23.2478 3.14597 27.6483 8.41772Z" fill="#525760"/>
<path d="M2.14648 15.1857C7.19184 16.1843 11.1984 19.74 13.2633 25.2563C14.1618 24.8768 15.8931 24.1656 17.2485 19.7738C18.9656 14.2093 22.1536 8.84856 26.3697 7.05982C26.3697 7.05982 19.767 -0.0278387 10.1782 4.89772C10.1782 4.89772 4.97018 8.37961 2.14648 15.1857Z" fill="#525760"/>
<path d="M71.1515 20.4345H67.6457L66.8521 22.5008H65.6914L68.8656 14.1883H69.979L73.1532 22.5008H71.9451L71.1515 20.4345ZM68.0128 19.4608H70.7844L69.3986 15.6133L68.0128 19.4608Z" fill="#525760"/>
<path d="M75.5557 15.162H72.6776V14.1883H79.5472V15.162H76.669V22.5008H75.5557V15.162Z" fill="#525760"/>
<path d="M83.9364 22.6195C83.4626 22.6195 83.0047 22.5404 82.5625 22.382C82.1203 22.2158 81.7295 21.9625 81.3899 21.622C81.0504 21.2816 80.778 20.8462 80.5727 20.3158C80.3674 19.7854 80.2647 19.1481 80.2647 18.4039V18.1664C80.2647 17.4539 80.3674 16.8404 80.5727 16.3258C80.778 15.8112 81.0504 15.3877 81.3899 15.0552C81.7295 14.7147 82.1203 14.4654 82.5625 14.307C83.0047 14.1487 83.4626 14.0695 83.9364 14.0695C84.4102 14.0695 84.8681 14.1487 85.3103 14.307C85.7525 14.4654 86.1434 14.7147 86.4829 15.0552C86.8224 15.3877 87.0948 15.8112 87.3001 16.3258C87.5054 16.8404 87.6081 17.4539 87.6081 18.1664V18.4039C87.6081 19.1481 87.5054 19.7854 87.3001 20.3158C87.0948 20.8462 86.8224 21.2816 86.4829 21.622C86.1434 21.9625 85.7525 22.2158 85.3103 22.382C84.8681 22.5404 84.4102 22.6195 83.9364 22.6195ZM83.9364 21.622C84.2601 21.622 84.572 21.5627 84.8721 21.4439C85.1721 21.3252 85.4367 21.1391 85.6656 20.8858C85.8946 20.6245 86.0762 20.292 86.2105 19.8883C86.3526 19.4766 86.4237 18.9818 86.4237 18.4039V18.1664C86.4237 17.6202 86.3526 17.1531 86.2105 16.7652C86.0762 16.3693 85.8946 16.0487 85.6656 15.8033C85.4367 15.5499 85.1721 15.3639 84.8721 15.2452C84.572 15.1264 84.2601 15.067 83.9364 15.067C83.6127 15.067 83.3008 15.1264 83.0007 15.2452C82.7007 15.3639 82.4362 15.5499 82.2072 15.8033C81.9782 16.0487 81.7926 16.3693 81.6505 16.7652C81.5163 17.1531 81.4491 17.6202 81.4491 18.1664V18.4039C81.4491 18.9818 81.5163 19.4766 81.6505 19.8883C81.7926 20.292 81.9782 20.6245 82.2072 20.8858C82.4362 21.1391 82.7007 21.3252 83.0007 21.4439C83.3008 21.5627 83.6127 21.622 83.9364 21.622Z" fill="#525760"/>
<path d="M89.5059 14.1883H90.6666L93.4382 19.4727L96.2097 14.1883H97.323V22.5008H96.2097V16.207L93.829 20.7195H92.9999L90.6193 16.207V22.5008H89.5059V14.1883Z" fill="#525760"/>
<path d="M103.048 21.9902C102.44 21.9902 101.895 21.9031 101.413 21.7289C100.932 21.5547 100.525 21.3093 100.193 20.9927C99.8618 20.6681 99.6052 20.2841 99.4236 19.8408C99.2499 19.3895 99.163 18.8908 99.163 18.3445V18.107C99.163 17.6241 99.2499 17.1729 99.4236 16.7533C99.6052 16.3337 99.8618 15.9735 100.193 15.6727C100.525 15.3718 100.932 15.1343 101.413 14.9602C101.895 14.786 102.44 14.6989 103.048 14.6989V13.832H104.161V14.6989C104.769 14.6989 105.314 14.786 105.796 14.9602C106.277 15.1343 106.684 15.3718 107.016 15.6727C107.347 15.9735 107.6 16.3337 107.774 16.7533C107.955 17.1729 108.046 17.6241 108.046 18.107V18.3445C108.046 18.8908 107.955 19.3895 107.774 19.8408C107.6 20.2841 107.347 20.6681 107.016 20.9927C106.684 21.3093 106.277 21.5547 105.796 21.7289C105.314 21.9031 104.769 21.9902 104.161 21.9902V22.857H103.048V21.9902ZM106.862 18.107C106.862 17.7666 106.802 17.4499 106.684 17.157C106.566 16.8641 106.392 16.6108 106.163 16.397C105.934 16.1754 105.65 16.0052 105.31 15.8864C104.978 15.7597 104.596 15.6964 104.161 15.6964V20.9927C104.596 20.9927 104.978 20.9293 105.31 20.8027C105.65 20.676 105.934 20.4979 106.163 20.2683C106.392 20.0387 106.566 19.7616 106.684 19.437C106.802 19.1125 106.862 18.7483 106.862 18.3445V18.107ZM100.347 18.3445C100.347 18.7483 100.407 19.1125 100.525 19.437C100.644 19.7616 100.817 20.0387 101.046 20.2683C101.275 20.4979 101.556 20.676 101.887 20.8027C102.227 20.9293 102.614 20.9927 103.048 20.9927V15.6964C102.614 15.6964 102.227 15.7597 101.887 15.8864C101.556 16.0052 101.275 16.1754 101.046 16.397C100.817 16.6108 100.644 16.8641 100.525 17.157C100.407 17.4499 100.347 17.7666 100.347 18.107V18.3445Z" fill="#525760"/>
<path d="M109.353 22.6195C109.235 22.6195 109.116 22.6077 108.998 22.5839V21.4914C109.037 21.4993 109.096 21.5033 109.175 21.5033C109.333 21.5033 109.472 21.4795 109.59 21.432C109.716 21.3766 109.823 21.2816 109.91 21.147C110.005 21.0045 110.083 20.8066 110.147 20.5533C110.218 20.3 110.273 19.9754 110.312 19.5795C110.352 19.1758 110.38 18.6889 110.395 18.1189C110.411 17.5489 110.419 16.872 110.419 16.0883V14.1883H115.986V22.5008H114.872V15.162H111.532V16.3258C111.532 17.2045 111.513 17.9724 111.473 18.6295C111.434 19.2787 111.374 19.8368 111.296 20.3039C111.217 20.771 111.118 21.155 110.999 21.4558C110.881 21.7566 110.739 21.9941 110.573 22.1683C110.415 22.3345 110.234 22.4493 110.028 22.5127C109.823 22.5839 109.598 22.6195 109.353 22.6195Z" fill="#525760"/>
<path d="M121.551 22.6195C121.077 22.6195 120.619 22.5404 120.177 22.382C119.735 22.2158 119.344 21.9625 119.004 21.622C118.665 21.2816 118.392 20.8462 118.187 20.3158C117.982 19.7854 117.879 19.1481 117.879 18.4039V18.1664C117.879 17.4539 117.982 16.8404 118.187 16.3258C118.392 15.8112 118.665 15.3877 119.004 15.0552C119.344 14.7147 119.735 14.4654 120.177 14.307C120.619 14.1487 121.077 14.0695 121.551 14.0695C122.024 14.0695 122.482 14.1487 122.925 14.307C123.367 14.4654 123.758 14.7147 124.097 15.0552C124.437 15.3877 124.709 15.8112 124.914 16.3258C125.12 16.8404 125.222 17.4539 125.222 18.1664V18.4039C125.222 19.1481 125.12 19.7854 124.914 20.3158C124.709 20.8462 124.437 21.2816 124.097 21.622C123.758 21.9625 123.367 22.2158 122.925 22.382C122.482 22.5404 122.024 22.6195 121.551 22.6195ZM121.551 21.622C121.874 21.622 122.186 21.5627 122.486 21.4439C122.786 21.3252 123.051 21.1391 123.28 20.8858C123.509 20.6245 123.691 20.292 123.825 19.8883C123.967 19.4766 124.038 18.9818 124.038 18.4039V18.1664C124.038 17.6202 123.967 17.1531 123.825 16.7652C123.691 16.3693 123.509 16.0487 123.28 15.8033C123.051 15.5499 122.786 15.3639 122.486 15.2452C122.186 15.1264 121.874 15.067 121.551 15.067C121.227 15.067 120.915 15.1264 120.615 15.2452C120.315 15.3639 120.05 15.5499 119.821 15.8033C119.592 16.0487 119.407 16.3693 119.265 16.7652C119.131 17.1531 119.063 17.6202 119.063 18.1664V18.4039C119.063 18.9818 119.131 19.4766 119.265 19.8883C119.407 20.292 119.592 20.6245 119.821 20.8858C120.05 21.1391 120.315 21.3252 120.615 21.4439C120.915 21.5627 121.227 21.622 121.551 21.622Z" fill="#525760"/>
<path d="M128.819 15.162H125.941V14.1883H132.811V15.162H129.933V22.5008H128.819V15.162Z" fill="#525760"/>
</svg>
