<svg width="32" height="32" viewBox="0 0 32 32" fill="none" xmlns="http://www.w3.org/2000/svg">
<rect width="32" height="32" rx="16" fill="#4480F3" fill-opacity="0.12"/>
<path fill-rule="evenodd" clip-rule="evenodd" d="M21.0001 13C21.0001 15.8 18.8001 18 16.0001 18C13.2001 18 11.0001 15.8 11.0001 13C11.0001 10.2 13.2001 8 16.0001 8C18.8001 8 21.0001 10.2 21.0001 13ZM19.0001 13C19.0001 11.3 17.7001 10 16.0001 10C14.3001 10 13.0001 11.3 13.0001 13C13.0001 14.7 14.3001 16 16.0001 16C17.7001 16 19.0001 14.7 19.0001 13ZM23.825 23.6234C23.524 24.0257 22.8218 24.1263 22.4205 23.8246C20.5144 22.4166 18.7087 21.5114 16 21.5114C13.2913 21.5114 11.4856 22.4166 9.57948 23.8246C9.1782 24.1263 8.47595 24.0257 8.17499 23.6234C7.87403 23.2211 7.97435 22.5171 8.37563 22.2154C10.4824 20.6063 12.6894 19.5 16 19.5C19.3106 19.5 21.5176 20.6063 23.6244 22.2154C24.0256 22.5171 24.126 23.2211 23.825 23.6234Z" fill="#4480F3"/>
</svg>
