<svg width="16" height="16" viewBox="0 0 16 16" fill="none" xmlns="http://www.w3.org/2000/svg">
<path d="M2.41384 11.5187C2.47926 11.6831 2.60732 11.8148 2.76986 11.8849C2.93239 11.9549 3.11607 11.9575 3.28051 11.892C3.44494 11.8266 3.57665 11.6986 3.64667 11.536C3.71668 11.3735 3.71926 11.1898 3.65384 11.0254L2.90718 9.14536L7.33384 8.16536V11.332C7.33384 11.5088 7.40408 11.6784 7.52911 11.8034C7.65413 11.9285 7.8237 11.9987 8.00051 11.9987C8.17732 11.9987 8.34689 11.9285 8.47191 11.8034C8.59694 11.6784 8.66718 11.5088 8.66718 11.332V8.16536L13.0938 9.14536L12.3472 11.0254C12.3147 11.1068 12.2986 11.1938 12.2998 11.2814C12.301 11.3691 12.3194 11.4556 12.3541 11.5361C12.3888 11.6166 12.439 11.6895 12.5019 11.7506C12.5647 11.8116 12.639 11.8597 12.7205 11.892C12.799 11.9231 12.8827 11.9389 12.9672 11.9387C13.1007 11.9388 13.2312 11.8989 13.3417 11.824C13.4523 11.7491 13.5378 11.6427 13.5872 11.5187L14.6205 8.91203C14.656 8.82187 14.6714 8.72507 14.6656 8.62835C14.6599 8.53164 14.6331 8.43735 14.5872 8.35203C14.5426 8.26703 14.4803 8.19265 14.4043 8.13397C14.3284 8.07529 14.2407 8.0337 14.1472 8.01203L12.0005 7.5387V4.66536C12.0005 4.48855 11.9303 4.31898 11.8052 4.19396C11.6802 4.06894 11.5107 3.9987 11.3338 3.9987H10.0005V1.9987C10.0005 1.82189 9.93027 1.65232 9.80525 1.52729C9.68022 1.40227 9.51065 1.33203 9.33384 1.33203H6.66718C6.49037 1.33203 6.3208 1.40227 6.19577 1.52729C6.07075 1.65232 6.00051 1.82189 6.00051 1.9987V3.9987H4.66718C4.49036 3.9987 4.3208 4.06894 4.19577 4.19396C4.07075 4.31898 4.00051 4.48855 4.00051 4.66536V7.5387L1.85384 7.9987C1.76035 8.02036 1.67264 8.06195 1.5967 8.12063C1.52076 8.17931 1.45839 8.2537 1.41384 8.3387C1.36793 8.42401 1.34116 8.51831 1.3354 8.61502C1.32965 8.71173 1.34504 8.80854 1.38051 8.8987L2.41384 11.5187ZM7.33384 2.66536H8.66718V3.9987H7.33384V2.66536ZM5.33384 5.33203H10.6672V7.2387L8.14718 6.66536H8.08051H8.00051H7.92051H7.85384L5.33384 7.2387V5.33203ZM13.8072 12.852C13.5733 12.9237 13.3493 13.0245 13.1405 13.152C12.9281 13.2762 12.6865 13.3417 12.4405 13.3417C12.1945 13.3417 11.9529 13.2762 11.7405 13.152C11.2787 12.8915 10.7574 12.7546 10.2272 12.7546C9.69693 12.7546 9.17567 12.8915 8.71384 13.152C8.49855 13.2748 8.255 13.3393 8.00718 13.3393C7.75935 13.3393 7.5158 13.2748 7.30051 13.152C6.83827 12.8927 6.31717 12.7566 5.78718 12.7566C5.25718 12.7566 4.73608 12.8927 4.27384 13.152C4.06146 13.2762 3.81987 13.3417 3.57384 13.3417C3.32782 13.3417 3.08622 13.2762 2.87384 13.152C2.66507 13.0245 2.44109 12.9237 2.20718 12.852C2.11847 12.8205 2.02409 12.8081 1.93025 12.8157C1.83641 12.8232 1.74524 12.8506 1.66273 12.8959C1.58023 12.9413 1.50826 13.0036 1.45158 13.0788C1.39489 13.1539 1.35476 13.2402 1.33384 13.332C1.28407 13.5009 1.3031 13.6826 1.38678 13.8374C1.47046 13.9923 1.612 14.1078 1.78051 14.1587C1.91475 14.1951 2.04282 14.2512 2.16051 14.3254C2.56498 14.5627 3.02489 14.6892 3.49384 14.692C3.98091 14.6921 4.45933 14.5633 4.88051 14.3187C5.14183 14.1745 5.4354 14.0989 5.73384 14.0989C6.03228 14.0989 6.32586 14.1745 6.58718 14.3187C7.00538 14.5578 7.47877 14.6836 7.96051 14.6836C8.44225 14.6836 8.91564 14.5578 9.33384 14.3187C9.59516 14.1745 9.88874 14.0989 10.1872 14.0989C10.4856 14.0989 10.7792 14.1745 11.0405 14.3187C11.4537 14.5653 11.926 14.6955 12.4072 14.6955C12.8884 14.6955 13.3606 14.5653 13.7738 14.3187C13.8915 14.2446 14.0196 14.1884 14.1538 14.152C14.2426 14.1341 14.3267 14.0983 14.4011 14.0467C14.4755 13.9952 14.5387 13.9291 14.5867 13.8523C14.6348 13.7756 14.6667 13.6899 14.6805 13.6005C14.6943 13.511 14.6898 13.4197 14.6672 13.332C14.646 13.2418 14.6062 13.157 14.5504 13.083C14.4946 13.009 14.424 12.9475 14.3431 12.9023C14.2621 12.8571 14.1727 12.8293 14.0804 12.8207C13.9882 12.812 13.8951 12.8227 13.8072 12.852Z" fill="white"/>
</svg>
