<svg width="20" height="20" viewBox="0 0 20 20" fill="none" xmlns="http://www.w3.org/2000/svg">
<path d="M3.01667 14.3998C3.09844 14.6054 3.25852 14.77 3.46168 14.8575C3.66485 14.9451 3.89446 14.9483 4.1 14.8665C4.30554 14.7847 4.47018 14.6247 4.5577 14.4215C4.64522 14.2183 4.64844 13.9887 4.56667 13.7832L3.63333 11.4332L9.16667 10.2082V14.1665C9.16667 14.3875 9.25446 14.5995 9.41074 14.7558C9.56702 14.912 9.77899 14.9998 10 14.9998C10.221 14.9998 10.433 14.912 10.5893 14.7558C10.7455 14.5995 10.8333 14.3875 10.8333 14.1665V10.2082L16.3667 11.4332L15.4333 13.7832C15.3927 13.8849 15.3726 13.9937 15.3741 14.1033C15.3756 14.2128 15.3987 14.321 15.442 14.4216C15.4854 14.5222 15.5481 14.6133 15.6267 14.6897C15.7053 14.766 15.7982 14.8261 15.9 14.8665C15.9982 14.9053 16.1028 14.9251 16.2083 14.9248C16.3752 14.925 16.5383 14.875 16.6765 14.7814C16.8147 14.6878 16.9216 14.5549 16.9833 14.3998L18.275 11.1415C18.3193 11.0288 18.3386 10.9078 18.3314 10.7869C18.3242 10.666 18.2907 10.5481 18.2333 10.4415C18.1776 10.3353 18.0997 10.2423 18.0048 10.1689C17.9098 10.0956 17.8002 10.0436 17.6833 10.0165L15 9.42484V5.83317C15 5.61216 14.9122 5.4002 14.7559 5.24392C14.5996 5.08764 14.3877 4.99984 14.1667 4.99984H12.5V2.49984C12.5 2.27882 12.4122 2.06686 12.2559 1.91058C12.0996 1.7543 11.8877 1.6665 11.6667 1.6665H8.33333C8.11232 1.6665 7.90036 1.7543 7.74408 1.91058C7.5878 2.06686 7.5 2.27882 7.5 2.49984V4.99984H5.83333C5.61232 4.99984 5.40036 5.08764 5.24408 5.24392C5.0878 5.4002 5 5.61216 5 5.83317V9.42484L2.31667 9.99984C2.1998 10.0269 2.09016 10.0789 1.99524 10.1523C1.90032 10.2256 1.82235 10.3186 1.76667 10.4248C1.70927 10.5315 1.67581 10.6494 1.66862 10.7702C1.66142 10.8911 1.68066 11.0121 1.725 11.1248L3.01667 14.3998ZM9.16667 3.33317H10.8333V4.99984H9.16667V3.33317ZM6.66667 6.6665H13.3333V9.04984L10.1833 8.33317H10.1H10H9.9H9.81667L6.66667 9.04984V6.6665ZM17.2583 16.0665C16.9659 16.1561 16.686 16.2821 16.425 16.4415C16.1595 16.5968 15.8575 16.6786 15.55 16.6786C15.2425 16.6786 14.9405 16.5968 14.675 16.4415C14.0977 16.1158 13.4461 15.9447 12.7833 15.9447C12.1205 15.9447 11.4689 16.1158 10.8917 16.4415C10.6226 16.5949 10.3181 16.6756 10.0083 16.6756C9.69855 16.6756 9.39411 16.5949 9.125 16.4415C8.5472 16.1174 7.89582 15.9472 7.23333 15.9472C6.57084 15.9472 5.91946 16.1174 5.34167 16.4415C5.07619 16.5968 4.7742 16.6786 4.46667 16.6786C4.15913 16.6786 3.85714 16.5968 3.59167 16.4415C3.33069 16.2821 3.05072 16.1561 2.75833 16.0665C2.64745 16.0271 2.52948 16.0116 2.41218 16.021C2.29488 16.0305 2.18091 16.0647 2.07778 16.1214C1.97465 16.1781 1.88469 16.256 1.81383 16.3499C1.74297 16.4439 1.69282 16.5518 1.66667 16.6665C1.60445 16.8776 1.62824 17.1047 1.73284 17.2983C1.83744 17.4918 2.01436 17.6362 2.225 17.6998C2.3928 17.7453 2.55289 17.8155 2.7 17.9082C3.20559 18.2048 3.78047 18.3629 4.36667 18.3665C4.9755 18.3666 5.57352 18.2056 6.1 17.8998C6.42665 17.7196 6.79362 17.6251 7.16667 17.6251C7.53972 17.6251 7.90669 17.7196 8.23333 17.8998C8.75608 18.1987 9.34782 18.356 9.95 18.356C10.5522 18.356 11.1439 18.1987 11.6667 17.8998C11.9933 17.7196 12.3603 17.6251 12.7333 17.6251C13.1064 17.6251 13.4734 17.7196 13.8 17.8998C14.3165 18.2081 14.9068 18.3709 15.5083 18.3709C16.1098 18.3709 16.7002 18.2081 17.2167 17.8998C17.3638 17.8072 17.5239 17.737 17.6917 17.6915C17.8026 17.6691 17.9077 17.6243 18.0008 17.5599C18.0938 17.4955 18.1727 17.4128 18.2328 17.3169C18.2928 17.221 18.3327 17.1139 18.35 17.0021C18.3673 16.8902 18.3616 16.7761 18.3333 16.6665C18.3069 16.5537 18.2571 16.4477 18.1874 16.3552C18.1176 16.2627 18.0294 16.1858 17.9282 16.1293C17.827 16.0729 17.7152 16.0381 17.5999 16.0273C17.4846 16.0165 17.3682 16.0298 17.2583 16.0665Z" fill="#4480F3"/>
</svg>
