<svg width="40" height="40" viewBox="0 0 40 40" fill="none" xmlns="http://www.w3.org/2000/svg">
<path d="M12.7071 11.2929C12.3166 10.9024 11.6834 10.9024 11.2929 11.2929C10.9024 11.6834 10.9024 12.3166 11.2929 12.7071L18.5858 20L11.2929 27.2929C10.9024 27.6834 10.9024 28.3166 11.2929 28.7071C11.6834 29.0976 12.3166 29.0976 12.7071 28.7071L20 21.4142L27.2929 28.7071C27.6834 29.0976 28.3166 29.0976 28.7071 28.7071C29.0976 28.3166 29.0976 27.6834 28.7071 27.2929L21.4142 20L28.7071 12.7071C29.0976 12.3166 29.0976 11.6834 28.7071 11.2929C28.3166 10.9024 27.6834 10.9024 27.2929 11.2929L20 18.5858L12.7071 11.2929Z" fill="#4480F3"/>
</svg>
