<svg width="20" height="20" viewBox="0 0 20 20" fill="none" xmlns="http://www.w3.org/2000/svg">
<path d="M17.2 11.6C16.9878 11.6 16.7843 11.6843 16.6343 11.8343C16.4843 11.9843 16.4 12.1878 16.4 12.4V15.6C16.4 15.8122 16.3157 16.0157 16.1657 16.1657C16.0157 16.3157 15.8122 16.4 15.6 16.4H4.4C4.18783 16.4 3.98434 16.3157 3.83431 16.1657C3.68429 16.0157 3.6 15.8122 3.6 15.6V12.4C3.6 12.1878 3.51571 11.9843 3.36569 11.8343C3.21566 11.6843 3.01217 11.6 2.8 11.6C2.58783 11.6 2.38434 11.6843 2.23431 11.8343C2.08429 11.9843 2 12.1878 2 12.4V15.6C2 16.2365 2.25286 16.847 2.70294 17.2971C3.15303 17.7471 3.76348 18 4.4 18H15.6C16.2365 18 16.847 17.7471 17.2971 17.2971C17.7471 16.847 18 16.2365 18 15.6V12.4C18 12.1878 17.9157 11.9843 17.7657 11.8343C17.6157 11.6843 17.4122 11.6 17.2 11.6ZM9.432 12.968C9.50808 13.0408 9.5978 13.0979 9.696 13.136C9.79176 13.1783 9.8953 13.2002 10 13.2002C10.1047 13.2002 10.2082 13.1783 10.304 13.136C10.4022 13.0979 10.4919 13.0408 10.568 12.968L13.768 9.768C13.9186 9.61736 14.0033 9.41304 14.0033 9.2C14.0033 8.98696 13.9186 8.78264 13.768 8.632C13.6174 8.48136 13.413 8.39673 13.2 8.39673C12.987 8.39673 12.7826 8.48136 12.632 8.632L10.8 10.472V2.8C10.8 2.58783 10.7157 2.38434 10.5657 2.23431C10.4157 2.08429 10.2122 2 10 2C9.78783 2 9.58434 2.08429 9.43431 2.23431C9.28429 2.38434 9.2 2.58783 9.2 2.8V10.472L7.368 8.632C7.29341 8.55741 7.20486 8.49824 7.1074 8.45787C7.00994 8.4175 6.90549 8.39673 6.8 8.39673C6.69451 8.39673 6.59006 8.4175 6.4926 8.45787C6.39514 8.49824 6.30659 8.55741 6.232 8.632C6.15741 8.70659 6.09824 8.79514 6.05787 8.8926C6.0175 8.99006 5.99673 9.09451 5.99673 9.2C5.99673 9.30549 6.0175 9.40994 6.05787 9.5074C6.09824 9.60486 6.15741 9.69341 6.232 9.768L9.432 12.968Z" fill="#B8B8B8"/>
</svg>
