<svg width="16" height="16" viewBox="0 0 16 16" fill="none" xmlns="http://www.w3.org/2000/svg">
<path d="M7.29281 4.05476C7.52665 4.01891 7.7629 4.00108 7.99947 4.00143C10.1195 4.00143 12.1128 5.52809 13.2728 8.00143C13.0954 8.37782 12.895 8.74295 12.6728 9.09476C12.6023 9.20397 12.5652 9.33142 12.5661 9.46143C12.5676 9.60692 12.6167 9.74793 12.7058 9.86294C12.7949 9.97796 12.9192 10.0607 13.0597 10.0984C13.2002 10.1362 13.3492 10.127 13.484 10.0721C13.6188 10.0173 13.7319 9.9199 13.8061 9.79476C14.1168 9.30671 14.3866 8.79386 14.6128 8.26143C14.6486 8.17824 14.667 8.08864 14.667 7.99809C14.667 7.90754 14.6486 7.81794 14.6128 7.73476C13.2661 4.60809 10.7328 2.66809 7.99947 2.66809C7.68658 2.66652 7.3742 2.69329 7.06614 2.74809C6.97859 2.76298 6.89483 2.79496 6.81964 2.84221C6.74446 2.88946 6.67931 2.95106 6.62793 3.02349C6.57655 3.09592 6.53994 3.17776 6.52018 3.26434C6.50043 3.35092 6.49792 3.44054 6.51281 3.52809C6.52769 3.61564 6.55967 3.6994 6.60692 3.77459C6.65418 3.84978 6.71578 3.91492 6.78821 3.9663C6.86064 4.01768 6.94248 4.0543 7.02906 4.07405C7.11564 4.0938 7.20526 4.09631 7.29281 4.08143V4.05476ZM2.47281 1.52809C2.41065 1.46593 2.33685 1.41663 2.25564 1.38299C2.17442 1.34935 2.08738 1.33203 1.99947 1.33203C1.91157 1.33203 1.82452 1.34935 1.74331 1.38299C1.66209 1.41663 1.5883 1.46593 1.52614 1.52809C1.4006 1.65363 1.33008 1.82389 1.33008 2.00143C1.33008 2.17896 1.4006 2.34922 1.52614 2.47476L3.59281 4.53476C2.64985 5.44244 1.89938 6.53075 1.38614 7.73476C1.34943 7.81887 1.33048 7.90965 1.33048 8.00143C1.33048 8.0932 1.34943 8.18398 1.38614 8.26809C2.73281 11.3948 5.26614 13.3348 7.99947 13.3348C9.19754 13.3265 10.3673 12.9698 11.3661 12.3081L13.5261 14.4748C13.5881 14.5372 13.6618 14.5868 13.7431 14.6207C13.8243 14.6545 13.9115 14.672 13.9995 14.672C14.0875 14.672 14.1746 14.6545 14.2559 14.6207C14.3371 14.5868 14.4108 14.5372 14.4728 14.4748C14.5353 14.4128 14.5849 14.3391 14.6187 14.2578C14.6526 14.1766 14.67 14.0894 14.67 14.0014C14.67 13.9134 14.6526 13.8263 14.6187 13.745C14.5849 13.6638 14.5353 13.5901 14.4728 13.5281L2.47281 1.52809ZM6.71281 7.65476L8.34614 9.28809C8.23346 9.3204 8.11668 9.33612 7.99947 9.33476C7.64585 9.33476 7.30671 9.19428 7.05666 8.94423C6.80662 8.69419 6.66614 8.35505 6.66614 8.00143C6.66477 7.88422 6.68049 7.76743 6.71281 7.65476ZM7.99947 12.0014C5.87947 12.0014 3.88614 10.4748 2.73281 8.00143C3.16353 7.05059 3.77485 6.19248 4.53281 5.47476L5.71281 6.66809C5.43564 7.17396 5.32997 7.75606 5.41164 8.32706C5.49332 8.89807 5.75795 9.4272 6.16582 9.83508C6.5737 10.2429 7.10283 10.5076 7.67383 10.5893C8.24484 10.6709 8.82694 10.5653 9.33281 10.2881L10.3928 11.3348C9.66687 11.762 8.84176 11.9918 7.99947 12.0014Z" fill="#80858E"/>
</svg>
