<svg width="16" height="16" viewBox="0 0 16 16" fill="none" xmlns="http://www.w3.org/2000/svg">
<path d="M14.6124 7.73464C13.2657 4.60797 10.7324 2.66797 7.99907 2.66797C5.26573 2.66797 2.7324 4.60797 1.38573 7.73464C1.34903 7.81875 1.33008 7.90953 1.33008 8.0013C1.33008 8.09307 1.34903 8.18386 1.38573 8.26797C2.7324 11.3946 5.26573 13.3346 7.99907 13.3346C10.7324 13.3346 13.2657 11.3946 14.6124 8.26797C14.6491 8.18386 14.6681 8.09307 14.6681 8.0013C14.6681 7.90953 14.6491 7.81875 14.6124 7.73464ZM7.99907 12.0013C5.87907 12.0013 3.88573 10.4746 2.7324 8.0013C3.88573 5.52797 5.87907 4.0013 7.99907 4.0013C10.1191 4.0013 12.1124 5.52797 13.2657 8.0013C12.1124 10.4746 10.1191 12.0013 7.99907 12.0013ZM7.99907 5.33464C7.47165 5.33464 6.95608 5.49103 6.51755 5.78405C6.07902 6.07707 5.73722 6.49354 5.53539 6.98081C5.33356 7.46808 5.28075 8.00426 5.38364 8.52154C5.48653 9.03883 5.74051 9.51398 6.11345 9.88692C6.48639 10.2599 6.96154 10.5138 7.47883 10.6167C7.99611 10.7196 8.53229 10.6668 9.01956 10.465C9.50683 10.2631 9.9233 9.92135 10.2163 9.48282C10.5093 9.04429 10.6657 8.52872 10.6657 8.0013C10.6657 7.29406 10.3848 6.61578 9.88469 6.11568C9.38459 5.61559 8.70631 5.33464 7.99907 5.33464ZM7.99907 9.33463C7.73536 9.33463 7.47757 9.25644 7.25831 9.10993C7.03904 8.96342 6.86815 8.75518 6.76723 8.51155C6.66631 8.26791 6.63991 7.99982 6.69135 7.74118C6.7428 7.48254 6.86979 7.24496 7.05626 7.05849C7.24273 6.87202 7.48031 6.74504 7.73895 6.69359C7.99759 6.64214 8.26568 6.66855 8.50931 6.76946C8.75295 6.87038 8.96119 7.04128 9.10769 7.26054C9.2542 7.47981 9.3324 7.73759 9.3324 8.0013C9.3324 8.35492 9.19193 8.69406 8.94188 8.94411C8.69183 9.19416 8.35269 9.33463 7.99907 9.33463Z" fill="#80858E"/>
</svg>
