<svg width="67" height="19" viewBox="0 0 67 19" fill="none" xmlns="http://www.w3.org/2000/svg">
<path d="M1.68 18.312C1.552 18.312 1.368 18.304 1.128 18.288C0.904 18.288 0.728 18.272 0.6 18.24V14.448C0.68 14.464 0.8 14.472 0.96 14.472C1.344 14.472 1.672 14.4 1.944 14.256C2.232 14.112 2.456 13.768 2.616 13.224C2.792 12.68 2.92 11.88 3 10.824C3.08 9.752 3.12 8.304 3.12 6.48V1.2H15.84V18H11.52V4.728H7.152V6.96C7.152 9.456 7.024 11.448 6.768 12.936C6.512 14.424 6.144 15.568 5.664 16.368C5.2 17.168 4.624 17.696 3.936 17.952C3.264 18.192 2.512 18.312 1.68 18.312ZM26.7713 18.312C25.6673 18.312 24.6193 18.152 23.6273 17.832C22.6353 17.512 21.7633 17.008 21.0113 16.32C20.2753 15.616 19.6913 14.728 19.2593 13.656C18.8273 12.568 18.6113 11.256 18.6113 9.72V9.24C18.6113 7.768 18.8273 6.504 19.2593 5.448C19.6913 4.392 20.2753 3.528 21.0113 2.856C21.7633 2.184 22.6353 1.688 23.6273 1.368C24.6193 1.048 25.6673 0.887999 26.7713 0.887999C27.8753 0.887999 28.9233 1.048 29.9153 1.368C30.9073 1.688 31.7713 2.184 32.5073 2.856C33.2593 3.528 33.8513 4.392 34.2833 5.448C34.7153 6.504 34.9313 7.768 34.9313 9.24V9.72C34.9313 11.256 34.7153 12.568 34.2833 13.656C33.8513 14.728 33.2593 15.616 32.5073 16.32C31.7713 17.008 30.9073 17.512 29.9153 17.832C28.9233 18.152 27.8753 18.312 26.7713 18.312ZM26.7713 14.712C27.2513 14.712 27.7153 14.64 28.1633 14.496C28.6113 14.336 29.0033 14.072 29.3393 13.704C29.6753 13.32 29.9473 12.808 30.1553 12.168C30.3633 11.528 30.4673 10.712 30.4673 9.72V9.24C30.4673 8.312 30.3633 7.544 30.1553 6.936C29.9473 6.312 29.6753 5.824 29.3393 5.472C29.0033 5.104 28.6113 4.848 28.1633 4.704C27.7153 4.56 27.2513 4.488 26.7713 4.488C26.2913 4.488 25.8273 4.56 25.3793 4.704C24.9313 4.848 24.5393 5.104 24.2033 5.472C23.8673 5.824 23.5953 6.312 23.3873 6.936C23.1793 7.544 23.0753 8.312 23.0753 9.24V9.72C23.0753 10.712 23.1793 11.528 23.3873 12.168C23.5953 12.808 23.8673 13.32 24.2033 13.704C24.5393 14.072 24.9313 14.336 25.3793 14.496C25.8273 14.64 26.2913 14.712 26.7713 14.712ZM37.68 1.2H48.96V4.752H42V18H37.68V1.2ZM58.4353 18.312C57.3313 18.312 56.2833 18.152 55.2913 17.832C54.2993 17.512 53.4273 17.008 52.6753 16.32C51.9393 15.616 51.3553 14.728 50.9233 13.656C50.4913 12.568 50.2753 11.256 50.2753 9.72V9.24C50.2753 7.768 50.4913 6.504 50.9233 5.448C51.3553 4.392 51.9393 3.528 52.6753 2.856C53.4273 2.184 54.2993 1.688 55.2913 1.368C56.2833 1.048 57.3313 0.887999 58.4353 0.887999C59.5393 0.887999 60.5873 1.048 61.5793 1.368C62.5713 1.688 63.4353 2.184 64.1713 2.856C64.9233 3.528 65.5153 4.392 65.9473 5.448C66.3793 6.504 66.5953 7.768 66.5953 9.24V9.72C66.5953 11.256 66.3793 12.568 65.9473 13.656C65.5153 14.728 64.9233 15.616 64.1713 16.32C63.4353 17.008 62.5713 17.512 61.5793 17.832C60.5873 18.152 59.5393 18.312 58.4353 18.312ZM58.4353 14.712C58.9153 14.712 59.3793 14.64 59.8273 14.496C60.2753 14.336 60.6673 14.072 61.0033 13.704C61.3393 13.32 61.6113 12.808 61.8193 12.168C62.0273 11.528 62.1313 10.712 62.1313 9.72V9.24C62.1313 8.312 62.0273 7.544 61.8193 6.936C61.6113 6.312 61.3393 5.824 61.0033 5.472C60.6673 5.104 60.2753 4.848 59.8273 4.704C59.3793 4.56 58.9153 4.488 58.4353 4.488C57.9553 4.488 57.4913 4.56 57.0433 4.704C56.5953 4.848 56.2033 5.104 55.8673 5.472C55.5313 5.824 55.2593 6.312 55.0513 6.936C54.8433 7.544 54.7393 8.312 54.7393 9.24V9.72C54.7393 10.712 54.8433 11.528 55.0513 12.168C55.2593 12.808 55.5313 13.32 55.8673 13.704C56.2033 14.072 56.5953 14.336 57.0433 14.496C57.4913 14.64 57.9553 14.712 58.4353 14.712Z" fill="black"/>
</svg>
