<svg width="16" height="16" viewBox="0 0 16 16" fill="none" xmlns="http://www.w3.org/2000/svg">
<path d="M2.66602 7.9987C2.66602 8.17551 2.73625 8.34508 2.86128 8.4701C2.9863 8.59513 3.15587 8.66536 3.33268 8.66536H8.39268L6.85935 10.192C6.79686 10.254 6.74727 10.3277 6.71342 10.409C6.67958 10.4902 6.66215 10.5774 6.66215 10.6654C6.66215 10.7534 6.67958 10.8405 6.71342 10.9217C6.74727 11.003 6.79686 11.0767 6.85935 11.1387C6.92132 11.2012 6.99506 11.2508 7.0763 11.2846C7.15754 11.3185 7.24467 11.3359 7.33268 11.3359C7.42069 11.3359 7.50783 11.3185 7.58907 11.2846C7.67031 11.2508 7.74404 11.2012 7.80602 11.1387L10.4727 8.47203C10.5334 8.40863 10.581 8.33387 10.6127 8.25203C10.6794 8.08972 10.6794 7.90767 10.6127 7.74536C10.581 7.66353 10.5334 7.58877 10.4727 7.52536L7.80602 4.8587C7.74386 4.79654 7.67006 4.74723 7.58885 4.71359C7.50763 4.67995 7.42059 4.66264 7.33268 4.66264C7.24478 4.66264 7.15773 4.67995 7.07652 4.71359C6.9953 4.74723 6.92151 4.79654 6.85935 4.8587C6.79719 4.92086 6.74788 4.99465 6.71424 5.07587C6.6806 5.15708 6.66329 5.24413 6.66329 5.33203C6.66329 5.41994 6.6806 5.50698 6.71424 5.5882C6.74788 5.66941 6.79719 5.74321 6.85935 5.80536L8.39268 7.33203H3.33268C3.15587 7.33203 2.9863 7.40227 2.86128 7.52729C2.73625 7.65232 2.66602 7.82189 2.66602 7.9987ZM11.3327 1.33203H4.66602C4.13558 1.33203 3.62687 1.54274 3.2518 1.91782C2.87673 2.29289 2.66602 2.8016 2.66602 3.33203V5.33203C2.66602 5.50884 2.73625 5.67841 2.86128 5.80344C2.9863 5.92846 3.15587 5.9987 3.33268 5.9987C3.50949 5.9987 3.67906 5.92846 3.80409 5.80344C3.92911 5.67841 3.99935 5.50884 3.99935 5.33203V3.33203C3.99935 3.15522 4.06959 2.98565 4.19461 2.86063C4.31964 2.7356 4.4892 2.66536 4.66602 2.66536H11.3327C11.5095 2.66536 11.6791 2.7356 11.8041 2.86063C11.9291 2.98565 11.9993 3.15522 11.9993 3.33203V12.6654C11.9993 12.8422 11.9291 13.0117 11.8041 13.1368C11.6791 13.2618 11.5095 13.332 11.3327 13.332H4.66602C4.4892 13.332 4.31964 13.2618 4.19461 13.1368C4.06959 13.0117 3.99935 12.8422 3.99935 12.6654V10.6654C3.99935 10.4886 3.92911 10.319 3.80409 10.194C3.67906 10.0689 3.50949 9.9987 3.33268 9.9987C3.15587 9.9987 2.9863 10.0689 2.86128 10.194C2.73625 10.319 2.66602 10.4886 2.66602 10.6654V12.6654C2.66602 13.1958 2.87673 13.7045 3.2518 14.0796C3.62687 14.4547 4.13558 14.6654 4.66602 14.6654H11.3327C11.8631 14.6654 12.3718 14.4547 12.7469 14.0796C13.122 13.7045 13.3327 13.1958 13.3327 12.6654V3.33203C13.3327 2.8016 13.122 2.29289 12.7469 1.91782C12.3718 1.54274 11.8631 1.33203 11.3327 1.33203Z" fill="#80858E"/>
</svg>
