<svg width="20" height="20" viewBox="0 0 20 20" fill="none" xmlns="http://www.w3.org/2000/svg">
<path d="M3.32384 14.1964C3.40206 14.3933 3.55518 14.551 3.74951 14.6348C3.94385 14.7186 4.16348 14.7217 4.36008 14.6434C4.55669 14.5651 4.71418 14.4117 4.79789 14.2171C4.8816 14.0225 4.88469 13.8026 4.80647 13.6057L3.9137 11.3548L9.20651 10.1815V13.9729C9.20651 14.1846 9.29049 14.3876 9.43998 14.5373C9.58947 14.687 9.79222 14.7711 10.0036 14.7711C10.215 14.7711 10.4178 14.687 10.5673 14.5373C10.7168 14.3876 10.8007 14.1846 10.8007 13.9729V10.1815L16.0935 11.3548L15.2008 13.6057C15.1619 13.7032 15.1427 13.8074 15.1441 13.9123C15.1455 14.0173 15.1676 14.1209 15.2091 14.2173C15.2505 14.3136 15.3106 14.4009 15.3857 14.474C15.4609 14.5471 15.5497 14.6047 15.6472 14.6434C15.741 14.6806 15.8411 14.6995 15.9421 14.6993C16.1017 14.6994 16.2577 14.6516 16.3899 14.5619C16.5221 14.4723 16.6243 14.3449 16.6834 14.1964L17.9189 11.0755C17.9613 10.9675 17.9797 10.8516 17.9728 10.7358C17.966 10.62 17.934 10.5071 17.8791 10.405C17.8258 10.3032 17.7512 10.2142 17.6604 10.1439C17.5696 10.0736 17.4648 10.0238 17.353 9.9979L14.7863 9.43119V5.99097C14.7863 5.77928 14.7023 5.57625 14.5528 5.42656C14.4033 5.27687 14.2006 5.19278 13.9892 5.19278H12.395V2.79819C12.395 2.5865 12.311 2.38348 12.1615 2.23379C12.012 2.0841 11.8092 2 11.5978 2H8.4094C8.198 2 7.99525 2.0841 7.84576 2.23379C7.69627 2.38348 7.61229 2.5865 7.61229 2.79819V5.19278H6.01807C5.80667 5.19278 5.60392 5.27687 5.45443 5.42656C5.30494 5.57625 5.22096 5.77928 5.22096 5.99097V9.43119L2.65427 9.98194C2.54249 10.0079 2.43761 10.0577 2.34682 10.1279C2.25602 10.1982 2.18144 10.2872 2.12818 10.389C2.07328 10.4912 2.04128 10.6041 2.03439 10.7199C2.02751 10.8357 2.04591 10.9516 2.08832 11.0595L3.32384 14.1964ZM9.20651 3.59639H10.8007V5.19278H9.20651V3.59639ZM6.81518 6.78916H13.1921V9.072L10.179 8.38555H10.0993H10.0036H9.90797H9.82826L6.81518 9.072V6.78916ZM16.9464 15.7928C16.6668 15.8786 16.399 15.9993 16.1493 16.152C15.8954 16.3007 15.6065 16.3791 15.3124 16.3791C15.0182 16.3791 14.7293 16.3007 14.4754 16.152C13.9232 15.84 13.3 15.6761 12.666 15.6761C12.032 15.6761 11.4087 15.84 10.8565 16.152C10.5991 16.299 10.3079 16.3762 10.0116 16.3762C9.71528 16.3762 9.42407 16.299 9.16666 16.152C8.61398 15.8415 7.99091 15.6785 7.35722 15.6785C6.72352 15.6785 6.10046 15.8415 5.54778 16.152C5.29385 16.3007 5.00498 16.3791 4.71081 16.3791C4.41665 16.3791 4.12778 16.3007 3.87385 16.152C3.62422 15.9993 3.35642 15.8786 3.07674 15.7928C2.97068 15.755 2.85783 15.7402 2.74563 15.7493C2.63343 15.7583 2.52441 15.7911 2.42577 15.8454C2.32712 15.8997 2.24107 15.9743 2.17329 16.0642C2.10551 16.1542 2.05754 16.2576 2.03252 16.3675C1.97302 16.5697 1.99577 16.7872 2.09582 16.9726C2.19588 17.158 2.36511 17.2963 2.56659 17.3573C2.7271 17.4008 2.88023 17.4681 3.02094 17.5568C3.50455 17.841 4.05445 17.9924 4.61516 17.9958C5.19753 17.9959 5.76955 17.8417 6.27315 17.5488C6.5856 17.3762 6.93661 17.2857 7.29345 17.2857C7.65028 17.2857 8.0013 17.3762 8.31375 17.5488C8.81378 17.8351 9.37979 17.9857 9.9558 17.9857C10.5318 17.9857 11.0978 17.8351 11.5978 17.5488C11.9103 17.3762 12.2613 17.2857 12.6181 17.2857C12.975 17.2857 13.326 17.3762 13.6384 17.5488C14.1325 17.8441 14.6972 18 15.2725 18C15.8479 18 16.4125 17.8441 16.9066 17.5488C17.0473 17.4601 17.2004 17.3928 17.3609 17.3493C17.467 17.3278 17.5676 17.2849 17.6566 17.2232C17.7456 17.1615 17.8211 17.0823 17.8785 16.9905C17.936 16.8986 17.9741 16.796 17.9906 16.6889C18.0072 16.5818 18.0018 16.4724 17.9747 16.3675C17.9494 16.2595 17.9018 16.1579 17.8351 16.0693C17.7684 15.9807 17.684 15.9071 17.5872 15.853C17.4904 15.7989 17.3835 15.7656 17.2732 15.7553C17.1628 15.7449 17.0516 15.7577 16.9464 15.7928Z" fill="#B8B8B8"/>
</svg>
